<svg width="0" height="0" class="hidden">
  <symbol xmlns="http://www.w3.org/2000/svg" viewBox="0 0 64 64" id="icon-close">
    <path d="M37.7 32L62.8 6.8c1.6-1.6 1.6-4.1 0-5.7-1.6-1.6-4.1-1.6-5.7 0L32 26.3 6.8 1.2C5.2-.4 2.7-.4 1.1 1.2c-1.6 1.6-1.6 4.1 0 5.7L26.3 32 1.2 57.2c-1.6 1.6-1.6 4.1 0 5.7C2 63.6 3 64 4 64s2-.4 2.8-1.2L32 37.7l25.2 25.2C58 63.6 59 64 60 64c1 0 2-.4 2.8-1.2 1.6-1.6 1.6-4.1 0-5.7L37.7 32z"></path>
  </symbol>

  <symbol xmlns="http://www.w3.org/2000/svg" viewBox="0 0 24 24" id="scroll">
    <path d="M12 7.5c-.2 0-.4 0-.6.1-.2.1-.3.2-.5.3l-6 6c-.1.1-.2.3-.3.5-.1.2-.1.4-.1.6s0 .4.1.6c.1.2.2.3.3.5.1.1.3.3.5.3.2.1.4.1.6.1.2 0 .4 0 .6-.1.2-.1.3-.2.5-.3l4.9-5 4.9 4.8c.1.2.3.3.5.4.2.1.4.1.6.1.2 0 .4 0 .6-.1.2-.1.4-.2.5-.3.1-.1.3-.3.3-.5.1-.2.1-.4.1-.6 0-.2-.1-.4-.2-.6-.1-.2-.2-.3-.4-.5l-6-5.8c-.2-.3-.5-.5-.9-.5z"></path>
  </symbol>

  <symbol fill="none" xmlns="http://www.w3.org/2000/svg" viewBox="0 0 24 24" id="mail-icon">
    <path d="M3 6l9 8 9-8" stroke="#FAFAFA"></path>
    <path stroke="#FAFAFA" stroke-linecap="round" stroke-linejoin="round" d="M2 5h20v14H2z"></path>
  </symbol>

  <symbol fill="none" xmlns="http://www.w3.org/2000/svg" viewBox="0 0 24 24" id="phone-icon">
    <path d="M12.74 18.404l2.566-2.565a1 1 0 011.279-.113l3.55 2.476a1 1 0 01.135 1.528l-.386.386c-.71.71-1.73 1.018-2.685.71-2.065-.665-5.822-2.208-8.937-5.323-3.115-3.115-4.659-6.872-5.323-8.937-.308-.956 0-1.975.71-2.685l.386-.387a1 1 0 011.527.135L8.04 7.18a1 1 0 01-.113 1.28L5.36 11.023" stroke="#fff" stroke-linecap="round"></path>
  </symbol>
</svg>