<svg width="20" height="21" viewBox="0 0 20 21" fill="none" xmlns="http://www.w3.org/2000/svg">
<g clip-path="url(#clip0)">
<path d="M10 20.1044C15.0769 20.1044 19.2308 15.8284 19.2308 10.6021C19.2308 5.37587 15.0769 1.09985 10 1.09985C4.92307 1.09985 0.769226 5.37587 0.769226 10.6021C0.769226 15.8284 4.92307 20.1044 10 20.1044Z" stroke="#47B0E0" stroke-miterlimit="10"/>
<path d="M10 7.43468C10.5385 7.43468 11 6.95957 11 6.40527C11 5.85097 10.5385 5.37585 10 5.37585C9.46154 5.37585 9 5.85097 9 6.40527C9 6.95957 9.46154 7.43468 10 7.43468Z" fill="#47B0E0"/>
<path d="M10 15.9075C9.38463 15.9075 8.9231 15.4324 8.9231 14.8781V9.49352C8.9231 8.93922 9.38463 8.46411 9.9231 8.46411H10C10.5385 8.46411 11 8.93922 11 9.49352V14.8781C11 15.4324 10.6154 15.9075 10 15.9075Z" fill="#47B0E0"/>
</g>
<defs>
<clipPath id="clip0">
<rect width="20" height="20.5882" fill="white" transform="translate(0 0.307983)"/>
</clipPath>
</defs>
</svg>
