<svg width="24" height="24" viewBox="0 0 24 24" fill="none" xmlns="http://www.w3.org/2000/svg">
<path d="M16.5 11.9706C16.5011 11.7741 16.4633 11.5793 16.3886 11.3974C16.314 11.2155 16.204 11.0501 16.065 10.9106L10.065 4.93905C9.92511 4.79985 9.75908 4.68944 9.57635 4.6141C9.39361 4.53877 9.19776 4.5 8.99997 4.5C8.80218 4.5 8.60633 4.53877 8.4236 4.6141C8.24086 4.68944 8.07483 4.79985 7.93497 4.93905C7.79511 5.07824 7.68417 5.24349 7.60848 5.42536C7.53279 5.60722 7.49384 5.80215 7.49384 5.999C7.49384 6.19585 7.53279 6.39077 7.60848 6.57264C7.68417 6.75451 7.79511 6.91975 7.93497 7.05895L12.9 11.9706L8.12997 16.8971C7.97654 17.0344 7.85322 17.2018 7.76775 17.3887C7.68227 17.5756 7.63646 17.7781 7.63319 17.9835C7.62992 18.1888 7.66926 18.3926 7.74875 18.5822C7.82823 18.7717 7.94616 18.9429 8.09515 19.085C8.24413 19.2271 8.42098 19.337 8.61462 19.408C8.80826 19.479 9.01453 19.5094 9.22054 19.4975C9.42654 19.4855 9.62784 19.4313 9.81186 19.3384C9.99587 19.2454 10.1586 19.1157 10.29 18.9573L16.08 12.9857C16.3444 12.7127 16.4946 12.3497 16.5 11.9706Z" fill="#204562"/>
</svg>
