<svg width="24" height="24" viewBox="0 0 24 24" fill="none" xmlns="http://www.w3.org/2000/svg">
<path d="M7.50003 12.0294C7.49889 12.2259 7.53673 12.4207 7.61137 12.6026C7.68602 12.7845 7.79601 12.9499 7.93503 13.0894L13.935 19.061C14.0749 19.2001 14.2409 19.3106 14.4237 19.3859C14.6064 19.4612 14.8022 19.5 15 19.5C15.1978 19.5 15.3937 19.4612 15.5764 19.3859C15.7591 19.3106 15.9252 19.2001 16.065 19.061C16.2049 18.9218 16.3158 18.7565 16.3915 18.5746C16.4672 18.3928 16.5062 18.1979 16.5062 18.001C16.5062 17.8042 16.4672 17.6092 16.3915 17.4274C16.3158 17.2455 16.2049 17.0802 16.065 16.9411L11.1 12.0294L15.87 7.10292C16.0235 6.96558 16.1468 6.79822 16.2323 6.61129C16.3177 6.42436 16.3635 6.22189 16.3668 6.01654C16.3701 5.81119 16.3307 5.60737 16.2513 5.41784C16.1718 5.22831 16.0538 5.05715 15.9049 4.91504C15.7559 4.77294 15.579 4.66296 15.3854 4.59198C15.1917 4.52101 14.9855 4.49056 14.7795 4.50255C14.5735 4.51453 14.3722 4.56869 14.1881 4.66164C14.0041 4.75459 13.8414 4.88432 13.71 5.04273L7.92003 11.0143C7.65555 11.2873 7.50539 11.6503 7.50003 12.0294Z" fill="#204562"/>
</svg>
