<svg width="40" height="40" viewBox="0 0 40 40" fill="none" xmlns="http://www.w3.org/2000/svg">
<path d="M39.9997 9.69238V5.82571C39.9997 5.65477 39.9317 5.49092 39.8108 5.37009L34.6553 0.214524C34.4035 -0.0371322 33.9955 -0.0370517 33.7439 0.214685C33.6231 0.335518 33.5552 0.499369 33.5552 0.670147V4.91446L33.2252 5.24442C31.4401 3.62735 29.3655 2.36182 27.1108 1.51437V0.670147C27.1107 0.314252 26.8221 0.0257818 26.4661 0.0258623C26.2953 0.0258623 26.1315 0.0937708 26.0107 0.214524L25.441 0.784213C14.8273 -2.23018 3.77956 3.93023 0.765171 14.5438C-2.24922 25.1575 3.91119 36.2053 14.5248 39.2197C18.2229 40.2699 22.1454 40.231 25.8219 39.1074V39.3368H27.1108V14.8479C27.1108 14.6769 27.0428 14.5131 26.9219 14.3922L24.4576 11.9279L24.4653 11.9137L24.4221 11.8924L21.9552 9.4255V6.09251L25.8219 2.22584V5.18126C25.8219 5.3522 25.8898 5.51605 26.0107 5.63689L29.8774 9.50356C30.129 9.75514 30.5369 9.75514 30.7886 9.50356L34.6553 5.63689C34.7761 5.51605 34.8441 5.3522 34.8441 5.18126V2.22584L38.7108 6.09251V9.42558L33.744 14.3923C33.6232 14.5132 33.5552 14.677 33.5552 14.8479V39.3369H34.8441V33.7772C40.1845 27.7281 41.5 19.1172 38.2094 11.7495L39.8108 10.148C39.9318 10.0272 39.9997 9.86332 39.9997 9.69238ZM25.8219 30.5892C25.6479 30.6923 25.4739 30.7941 25.2953 30.8875L22.0415 23.2947C22.6364 22.9291 23.1217 22.4099 23.4464 21.7918L25.8219 22.9796V30.5892ZM16.7307 17.9845L8.99732 14.6688C10.1847 12.1716 12.1862 10.1526 14.6729 8.94354L18.0022 16.7123C17.4849 17.0314 17.0494 17.4671 16.7307 17.9845ZM20.0218 17.4257C21.4455 17.4257 22.5996 18.5798 22.5996 20.0035C22.5996 21.4272 21.4455 22.5813 20.0218 22.5813C18.5982 22.5813 17.4441 21.4272 17.4441 20.0035C17.4441 18.5798 18.5982 17.4257 20.0218 17.4257ZM16.246 19.178C16.1249 19.7216 16.1249 20.2854 16.246 20.829L8.50109 24.1479C8.02477 22.818 7.77996 21.4162 7.77738 20.0035C7.77996 18.5908 8.02477 17.1891 8.50109 15.8591L16.246 19.178ZM16.7307 22.0226C17.0494 22.54 17.4849 22.9757 18.0022 23.2947L14.6729 31.0635C12.1852 29.8548 10.1828 27.8358 8.99474 25.3382L16.7307 22.0226ZM19.197 23.7793C19.7402 23.9005 20.3035 23.9005 20.8467 23.7793L24.1225 31.4218C21.4779 32.4732 18.5404 32.5227 15.862 31.561L19.197 23.7793ZM25.8219 21.5386L23.8453 20.55C23.9032 20.1871 23.9032 19.8173 23.8453 19.4544L25.8219 18.4684V21.5386ZM25.8219 15.1147V17.0275L23.4464 18.2152C23.1251 17.6037 22.6467 17.0889 22.0602 16.7239L23.8505 13.1434L25.8219 15.1147ZM22.8896 12.1825L20.8648 16.2322C20.3161 16.1065 19.7463 16.105 19.197 16.2277L15.862 8.44602C17.1237 7.99411 18.4535 7.7617 19.7937 7.75905C20.0863 7.75905 20.3737 7.7816 20.6663 7.80287V9.69238C20.6663 9.86332 20.7343 10.0272 20.8551 10.148L22.8896 12.1825ZM20.8551 5.37009C20.7343 5.49092 20.6663 5.65477 20.6663 5.82571V6.51398C20.3756 6.49464 20.0863 6.47016 19.7937 6.47016C12.3194 6.47016 6.26036 12.5292 6.26036 20.0035C6.26036 27.4778 12.3194 33.5369 19.7937 33.5369C21.8919 33.536 23.9593 33.0311 25.8219 32.0649V37.7606C16.0127 40.9655 5.4627 35.6117 2.25771 25.8026C-0.947282 15.9934 4.40661 5.44339 14.2158 2.2384C17.5049 1.16379 21.0277 1.02354 24.3918 1.83337L20.8551 5.37009ZM30.333 8.13669L27.1108 4.91446V2.89219C29.0202 3.67197 30.78 4.77679 32.3121 6.1576L30.333 8.13669ZM38.7108 20.155C38.7205 24.3397 37.3628 28.413 34.8441 31.755V15.1147L37.2285 12.7271C38.2116 15.0799 38.7155 17.6051 38.7108 20.155Z" fill="#FAFAFA"/>
<path d="M30.333 16.1373C29.7372 16.0488 29.22 15.6799 28.9422 15.1455L27.857 15.8402C28.3504 16.7634 29.288 17.364 30.333 17.4262C31.3779 17.364 32.3155 16.7634 32.8089 15.8402L31.7237 15.1455C31.4459 15.68 30.9287 16.0488 30.333 16.1373Z" fill="#FAFAFA"/>
<path d="M32.2663 18.7151H30.9774V39.3373H32.2663V18.7151Z" fill="#FAFAFA"/>
<path d="M36.9654 7.30629L32.4546 11.8171L33.366 12.7285L37.8768 8.21766L36.9654 7.30629Z" fill="#FAFAFA"/>
<path d="M2.62183 20.004H3.91072C3.92063 11.1102 11.128 3.9028 20.0219 3.89289V2.604C10.4165 2.61472 2.63246 10.3987 2.62183 20.004Z" fill="#FAFAFA"/>
<path d="M11.8332 12.4595L12.7446 13.3708L14.0333 12.0822L13.1219 11.1708L11.8332 12.4595Z" fill="#FAFAFA"/>
<path d="M13.3885 27.2816L12.0999 25.9929L11.1885 26.9043L12.4772 28.193L13.3885 27.2816Z" fill="#FAFAFA"/>
</svg>
